<?xml version="1.0" encoding="UTF-8" standalone="no"?>
<!-- Created with Inkscape (http://www.inkscape.org/) -->

<svg
   xmlns:dc="http://purl.org/dc/elements/1.1/"
   xmlns:cc="http://creativecommons.org/ns#"
   xmlns:rdf="http://www.w3.org/1999/02/22-rdf-syntax-ns#"
   xmlns:svg="http://www.w3.org/2000/svg"
   xmlns="http://www.w3.org/2000/svg"
   xmlns:sodipodi="http://sodipodi.sourceforge.net/DTD/sodipodi-0.dtd"
   xmlns:inkscape="http://www.inkscape.org/namespaces/inkscape"
   width="32"
   height="32"
   viewBox="0 0 8.4666665 8.4666669"
   version="1.1"
   id="svg8"
   inkscape:version="0.92.1 r15371"
   sodipodi:docname="compare.svg"
   inkscape:export-filename="C:\Users\ivc_ksv\Downloads\MainIco2.png"
   inkscape:export-xdpi="768.00006"
   inkscape:export-ydpi="768.00006">
  <defs
     id="defs2" />
  <sodipodi:namedview
     id="base"
     pagecolor="#ffffff"
     bordercolor="#666666"
     borderopacity="1.0"
     inkscape:pageopacity="0.0"
     inkscape:pageshadow="2"
     inkscape:zoom="11.2"
     inkscape:cx="17.386705"
     inkscape:cy="13.183881"
     inkscape:document-units="mm"
     inkscape:current-layer="layer3"
     showgrid="true"
     units="px"
     showguides="true"
     inkscape:guide-bbox="true"
     inkscape:window-width="1920"
     inkscape:window-height="1018"
     inkscape:window-x="-8"
     inkscape:window-y="-8"
     inkscape:window-maximized="1"
     inkscape:snap-bbox="false"
     inkscape:snap-global="false">
    <inkscape:grid
       type="xygrid"
       id="grid4520" />
  </sodipodi:namedview>
  <metadata
     id="metadata5">
    <rdf:RDF>
      <cc:Work
         rdf:about="">
        <dc:format>image/svg+xml</dc:format>
        <dc:type
           rdf:resource="http://purl.org/dc/dcmitype/StillImage" />
        <dc:title />
      </cc:Work>
    </rdf:RDF>
  </metadata>
  <g
     inkscape:label="Compare"
     inkscape:groupmode="layer"
     id="layer1"
     transform="translate(0,-288.53332)"
     style="display:none">
    <path
       style="color:#000000;font-style:normal;font-variant:normal;font-weight:normal;font-stretch:normal;font-size:medium;line-height:normal;font-family:sans-serif;font-variant-ligatures:normal;font-variant-position:normal;font-variant-caps:normal;font-variant-numeric:normal;font-variant-alternates:normal;font-feature-settings:normal;text-indent:0;text-align:start;text-decoration:none;text-decoration-line:none;text-decoration-style:solid;text-decoration-color:#000000;letter-spacing:normal;word-spacing:normal;text-transform:none;writing-mode:lr-tb;direction:ltr;text-orientation:mixed;dominant-baseline:auto;baseline-shift:baseline;text-anchor:start;white-space:normal;shape-padding:0;clip-rule:nonzero;display:inline;overflow:visible;visibility:visible;opacity:1;isolation:auto;mix-blend-mode:normal;color-interpolation:sRGB;color-interpolation-filters:linearRGB;solid-color:#000000;solid-opacity:1;vector-effect:none;fill:#000080;fill-opacity:1;fill-rule:nonzero;stroke:none;stroke-width:0.5;stroke-linecap:butt;stroke-linejoin:miter;stroke-miterlimit:4;stroke-dasharray:none;stroke-dashoffset:0;stroke-opacity:1;color-rendering:auto;image-rendering:auto;shape-rendering:auto;text-rendering:auto;enable-background:accumulate"
       d="m 1.2898438,289.41595 c -0.44173016,0 -0.80460202,0.36288 -0.80460202,0.80461 v 3.89847 c 0,0.44173 0.36287186,0.8046 0.80460202,0.8046 h 2.4711669 v 0.38912 c 0,0.44173 0.3628721,0.8046 0.8046021,0.8046 H 7.176823 c 0.4417301,0 0.8046019,-0.36287 0.8046019,-0.8046 v -3.89847 c 3e-7,-0.44173 -0.3628718,-0.80512 -0.8046019,-0.80512 H 4.7061727 v -0.3886 c 0,-0.44173 -0.3628718,-0.80461 -0.8046021,-0.80461 z m 0,0.50023 h 2.6117268 c 0.1733788,0 0.3043743,0.131 0.3043743,0.30438 v 3.89847 c 0,0.17338 -0.1309955,0.30489 -0.3043743,0.30489 H 1.2898438 c -0.1733788,0 -0.30437416,-0.13151 -0.30437416,-0.30489 v -3.89847 c 0,-0.17338 0.13099536,-0.30438 0.30437416,-0.30438 z m 3.4163289,1.19321 H 7.176823 c 0.1733788,0 0.3048908,0.13151 0.3048908,0.30489 v 3.89847 c 0,0.17338 -0.131512,0.30438 -0.3048908,0.30438 H 4.5656128 c -0.1733788,0 -0.304891,-0.131 -0.304891,-0.30438 v -0.47852 c 0.2623233,-0.13316 0.4454509,-0.40297 0.4454509,-0.7152 z m -1.7151408,0.42014 -0.00517,0.34261 H 2.1409546 v 0.60151 h 0.8449097 l 0.00517,0.30748 0.8392253,-0.60823 z m 2.7186972,1.15962 -0.8392253,0.64337 0.8392253,0.60771 0.00568,-0.30696 h 0.8443928 v -0.60151 H 5.7154134 Z"
       id="rect4493"
       inkscape:connector-curvature="0"
       sodipodi:nodetypes="sssscsssssscsssssssssssscsssssscsccccccccccccccccc" />
  </g>
  <g
     inkscape:groupmode="layer"
     id="layer2"
     inkscape:label="NewDestination"
     style="display:none">
    <path
       style="color:#000000;font-style:normal;font-variant:normal;font-weight:normal;font-stretch:normal;font-size:medium;line-height:normal;font-family:sans-serif;font-variant-ligatures:normal;font-variant-position:normal;font-variant-caps:normal;font-variant-numeric:normal;font-variant-alternates:normal;font-feature-settings:normal;text-indent:0;text-align:start;text-decoration:none;text-decoration-line:none;text-decoration-style:solid;text-decoration-color:#000000;letter-spacing:normal;word-spacing:normal;text-transform:none;writing-mode:lr-tb;direction:ltr;text-orientation:mixed;dominant-baseline:auto;baseline-shift:baseline;text-anchor:start;white-space:normal;shape-padding:0;clip-rule:nonzero;display:inline;overflow:visible;visibility:visible;opacity:1;isolation:auto;mix-blend-mode:normal;color-interpolation:sRGB;color-interpolation-filters:linearRGB;solid-color:#000000;solid-opacity:1;vector-effect:none;fill:#000080;fill-opacity:1;fill-rule:nonzero;stroke:none;stroke-width:1.88976371;stroke-linecap:butt;stroke-linejoin:miter;stroke-miterlimit:4;stroke-dasharray:none;stroke-dashoffset:0;stroke-opacity:1;color-rendering:auto;image-rendering:auto;shape-rendering:auto;text-rendering:auto;enable-background:accumulate"
       d="m 7.7734375,2.5546875 c -0.4852873,0 -0.9308005,0.1714414 -1.2929687,0.4492187 -0.09717,0.017831 -0.1868815,0.064046 -0.2578126,0.1328126 L 1.7578125,7.3515625 C 1.7052665,7.4007575 1.6639613,7.4607174 1.6367188,7.5273438 1.3113848,7.9045096 1.1074219,8.3879765 1.1074219,8.9179688 v 7.6835932 c 0,1.174887 0.9735514,2.148438 2.1484375,2.148438 H 14.193359 c -0.0894,0.463376 -0.138671,0.940877 -0.138671,1.429688 0,4.159675 3.391105,7.550781 7.550781,7.550781 4.159676,0 7.552734,-3.391106 7.552734,-7.550781 0,-0.488824 -0.05117,-0.966301 -0.140625,-1.429688 h 0.222656 c 1.174887,0 2.148438,-0.973551 2.148438,-2.148438 V 8.9179688 c 0,-0.5221124 -0.198871,-0.9982272 -0.515625,-1.3730469 -0.02662,-0.073489 -0.0701,-0.1397142 -0.126953,-0.1933594 L 26.271484,3.1367188 C 26.203275,3.0713684 26.117951,3.0266746 26.025391,3.0078125 25.662485,2.728022 25.215749,2.5546875 24.728516,2.5546875 Z M 7.3925781,4.0019531 H 25.107422 l 3.501953,3.2109375 H 4.0058594 Z m -4.1367187,4.65625 H 29.240234 c 0.160645,0 0.257813,0.099124 0.257813,0.2597657 v 7.6835932 c 0,0.160646 -0.09717,0.257813 -0.257813,0.257813 h -0.863281 c -1.233235,-2.501101 -3.803253,-4.232422 -6.771484,-4.232422 -2.968231,0 -5.538819,1.731321 -6.771485,4.232422 H 3.2558594 c -0.1606447,0 -0.2597656,-0.09717 -0.2597656,-0.257813 V 8.9179688 c 0,-0.1606451 0.099121,-0.2597642 0.2597656,-0.2597657 z M 21.605469,14.517578 c 3.138372,0 5.662109,2.523738 5.662109,5.66211 0,3.138371 -2.523737,5.662109 -5.662109,5.662109 -3.138372,0 -5.66211,-2.523738 -5.66211,-5.662109 0,-3.138372 2.523738,-5.66211 5.66211,-5.66211 z m -0.947266,1.269531 v 3.447266 h -3.441406 v 1.888672 h 3.441406 V 24.5625 h 1.888672 v -3.439453 h 3.439453 v -1.888672 h -3.439453 v -3.447266 z"
       transform="scale(0.26458333)"
       id="path4612"
       inkscape:connector-curvature="0" />
    <g
       id="g4626"
       transform="translate(0.06943053,0.0370122)" />
  </g>
  <g
     inkscape:groupmode="layer"
     id="layer3"
     inkscape:label="MainIco">
    <path
       style="color:#000000;font-style:normal;font-variant:normal;font-weight:normal;font-stretch:normal;font-size:medium;line-height:normal;font-family:sans-serif;font-variant-ligatures:normal;font-variant-position:normal;font-variant-caps:normal;font-variant-numeric:normal;font-variant-alternates:normal;font-feature-settings:normal;text-indent:0;text-align:start;text-decoration:none;text-decoration-line:none;text-decoration-style:solid;text-decoration-color:#000000;letter-spacing:normal;word-spacing:normal;text-transform:none;writing-mode:lr-tb;direction:ltr;text-orientation:mixed;dominant-baseline:auto;baseline-shift:baseline;text-anchor:start;white-space:normal;shape-padding:0;clip-rule:nonzero;display:inline;overflow:visible;visibility:visible;opacity:1;isolation:auto;mix-blend-mode:normal;color-interpolation:sRGB;color-interpolation-filters:linearRGB;solid-color:#000000;solid-opacity:1;vector-effect:none;fill:#000080;fill-opacity:1;fill-rule:nonzero;stroke:none;stroke-width:0.5;stroke-linecap:round;stroke-linejoin:round;stroke-miterlimit:4;stroke-dasharray:none;stroke-dashoffset:0;stroke-opacity:1;color-rendering:auto;image-rendering:auto;shape-rendering:auto;text-rendering:auto;enable-background:accumulate"
       d="M 1.6464111,0.8419444 A 0.250025,0.250025 0 0 0 1.444873,0.98457135 L 0.88521727,2.1700287 C 0.71286755,2.2683216 0.59376219,2.4523154 0.59376219,2.6625051 v 4.3945638 c 0,0.3108547 0.25758595,0.5679239 0.56844071,0.5679239 h 6.1422607 c 0.310855,0 0.5684404,-0.2570692 0.5684407,-0.5679239 V 2.6625051 c 0,-0.3108549 -0.2575857,-0.5684408 -0.5684407,-0.5684408 H 4.3811279 L 3.8318074,0.98043723 A 0.250025,0.250025 0 0 0 3.6070148,0.8419444 H 1.6696655 a 0.250025,0.250025 0 0 0 -0.023254,0 z m 0.1839681,0.5002279 h 1.6226399 l 0.3694866,0.751892 H 1.4748454 Z M 1.1622029,2.5937754 h 2.571936 V 3.0898691 H 4.23385 V 2.5937754 h 3.0706136 c 0.042503,0 0.068213,0.026227 0.068213,0.06873 v 4.3945638 c 0,0.042504 -0.02571,0.068213 -0.068213,0.068213 H 1.1622029 c -0.042504,0 -0.06873,-0.02571 -0.06873,-0.068213 V 2.6625051 c 0,-0.042504 0.026227,-0.068729 0.06873,-0.06873 z M 4.240568,3.0707488 V 3.5647756 H 3.7460245 V 4.0644867 H 4.240568 V 4.537326 H 3.7263874 V 6.0529958 H 4.7340779 V 4.5414601 h 0.00568 V 4.0412322 H 4.2457356 V 3.5704599 H 4.7402792 V 3.0707488 Z"
       id="rect4495"
       inkscape:connector-curvature="0" />
  </g>
</svg>
